<?xml version="1.0" encoding="utf-8"?><svg width="253" height="243" viewBox="0 0 253 243" xmlns="http://www.w3.org/2000/svg" xmlns:xlink="http://www.w3.org/1999/xlink"><view id="icon--ico-account" viewBox="131 102 52 52"/><svg width="52" height="52" fill="none" viewBox="-10 -10 52 52" x="131" y="102" xmlns="http://www.w3.org/2000/svg"><path d="M8 27s2.315-5 8-5c5.685 0 8 5 8 5m7-11c0 8.284-6.716 15-15 15-8.284 0-15-6.716-15-15C1 7.716 7.716 1 16 1c8.284 0 15 6.716 15 15Zm-9-2c0 3.314-2.686 7-6 7s-6-3.686-6-7 1.5-6 6-6 6 2.686 6 6Z" stroke="#9B9591" stroke-width="2"/></svg><view id="icon--ico-cart" viewBox="203 50 49 49"/><svg width="49" height="49" fill="none" viewBox="-10 -10 49 49" x="203" y="50" xmlns="http://www.w3.org/2000/svg"><path d="M2 2h2.495l3.318 15.494a2.495 2.495 0 0 0 2.495 1.971H22.51a2.495 2.495 0 0 0 2.433-1.959L27 8.238H5.83m4.84 17.402a1.247 1.247 0 1 1-2.495 0 1.247 1.247 0 0 1 2.495 0Zm13.723 0a1.247 1.247 0 1 1-2.495 0 1.247 1.247 0 0 1 2.495 0Z" stroke="#9B9591" stroke-width="2.5" stroke-linecap="round" stroke-linejoin="round"/></svg><view id="icon--ico-catalog" viewBox="106 0 97 94"/><svg width="97" height="94" fill="none" viewBox="-10 -10 97 94" x="106" xmlns="http://www.w3.org/2000/svg"><path d="M43.12 61.6h12.32v12.32H43.12V61.6Zm21.56 0H77v12.32H64.68V61.6ZM43.12 40.04h12.32v12.32H43.12V40.04Zm21.56 0H77v12.32H64.68V40.04Z" fill="#4859F0"/><path d="M77 21.56H58.52V9.24c0-5.236-4.004-9.24-9.24-9.24H30.8c-5.236 0-9.24 4.004-9.24 9.24v12.32H3.08C1.232 21.56 0 22.792 0 24.64v.616l5.852 37.268c.308 3.08 3.08 5.236 6.16 5.236H36.96V61.6H12.012L6.776 27.72H77v-6.16ZM27.72 9.24c0-1.848 1.232-3.08 3.08-3.08h18.48c1.848 0 3.08 1.232 3.08 3.08v12.32H27.72V9.24Z" fill="#4859F0"/></svg><view id="icon--ico-control" viewBox="115 154 29 35"/><svg width="29" height="35" fill="none" viewBox="-10 -10 29 35" x="115" y="154" xmlns="http://www.w3.org/2000/svg"><path d="M0 14.021c0-.128.027-.255.079-.374a.975.975 0 0 1 .225-.318l6.189-5.832L.304 1.665a.95.95 0 0 1-.298-.69A.951.951 0 0 1 .31.287C.504.104.766 0 1.04 0c.274-.001.537.1.733.281l6.923 6.524A.95.95 0 0 1 9 7.497a.95.95 0 0 1-.304.692l-6.923 6.524a1.06 1.06 0 0 1-.532.268c-.201.038-.41.019-.6-.056-.19-.074-.352-.199-.466-.36A.939.939 0 0 1 0 14.021Z" fill="#212121"/></svg><view id="icon--ico-ideas" viewBox="0 102 77 96"/><svg width="77" height="96" fill="none" viewBox="-10 -10 77 96" y="102" xmlns="http://www.w3.org/2000/svg"><path d="m39.246 71.483-16.632 4.441a2.238 2.238 0 0 1-2.731-1.571 2.229 2.229 0 0 1 1.577-2.723l16.632-4.441a2.238 2.238 0 0 1 2.731 1.572 2.228 2.228 0 0 1-1.577 2.722Zm-7.7-50.94c-.15 2.02-1.296 3.159-3.077 3.13-1.773-.028-3.063-1.24-3.02-3.083.041-1.794 1.17-2.973 3.09-2.952 1.918.02 2.87 1.15 3.006 2.904Zm21.322-6.81C46.252 2.84 33.147-2.452 20.972 1.093 10.318 4.197 3.371 11.208.845 21.991c-2.5 10.673.612 19.853 8.488 27.54 1.847 1.804 3.545 3.988 4.586 6.318 1.044 2.336 1.38 3.067 3.922 2.453 3.531-.851 7.015-1.898 10.546-2.752 1.81-.438 2.498-1.446 2.486-3.264-.049-7.34-.032-14.68-.006-22.02.006-1.661-.518-3.03-2.311-3.07-1.816-.043-2.372 1.28-2.357 2.973.042 4.759.013 9.518.013 14.277 0 7.655 0 7.655-7.553 8.755-2.871-3.279-5.486-6.227-8.058-9.21C1.367 33.283 3.056 17.454 14.58 9.256c8.28-5.89 17.173-6.218 26.04-1.245 8.234 4.618 12.714 14.132 11.526 23.336-.793 6.148-3.739 11.056-8.108 15.275-2.637 2.546-5.04 5.287-5.904 8.969-.405 1.722-1.374 2.576-3.047 2.987.312-.29-18.04 4.835-18.04 4.835a2.183 2.183 0 0 0-1.546 2.668l.048.179a2.193 2.193 0 0 0 2.677 1.54s21.058-5.64 21.334-5.718c1.95-.536 3.012-1.92 3.056-3.895.067-2.948 1.352-5.243 3.444-7.202 1.12-1.049 2.234-2.107 3.288-3.22 8.698-9.195 10.134-23.145 3.52-34.033Z" fill="#4859F0"/></svg><view id="icon--ico-list" viewBox="203 99 45 49"/><svg width="45" height="49" fill="none" viewBox="-10 -10 45 49" x="203" y="99" xmlns="http://www.w3.org/2000/svg"><path d="M22.917 10.357h-8.334V2.071h-12.5V26.93h20.834V10.357Zm-.863-2.071-5.387-5.357v5.357h5.387ZM1.042 0h15.625L25 8.286v19.678c0 .275-.11.538-.305.733-.195.194-.46.303-.737.303H1.042c-.277 0-.542-.11-.737-.303A1.033 1.033 0 0 1 0 27.964V1.036C0 .76.11.498.305.303.5.11.765 0 1.042 0ZM6.25 14.5h12.5v2.071H6.25V14.5Zm0-6.214h5.208v2.071H6.25V8.286Zm0 12.428h12.5v2.072H6.25v-2.072Z" fill="#9B9591"/></svg><view id="icon--ico-livechat" viewBox="77 102 54 52"/><svg width="54" height="52" fill="none" viewBox="-10 -10 54 52" x="77" y="102" xmlns="http://www.w3.org/2000/svg"><path d="M10 15.85h17m4 .15L3 29l6.222-13L3 3l28 13Z" stroke="#fff" stroke-width="2.3"/></svg><view id="icon--ico-order" viewBox="203 148 38 47"/><svg width="38" height="47" fill="none" viewBox="-10 -10 38 47" x="203" y="148" xmlns="http://www.w3.org/2000/svg"><path d="M7.643 26.985c-.12.02-.241.02-.36 0a1.245 1.245 0 0 1-.646-.436 1.14 1.14 0 0 1-.239-.717v-.157l1.35-9.039H1.24c-.22 0-.435-.056-.623-.165a1.165 1.165 0 0 1-.442-.447 1.163 1.163 0 0 1 0-1.224l3-4.968L9.321.552c.137-.22.348-.388.598-.479.251-.09.527-.097.782-.02.26.075.487.228.646.436.16.208.244.46.239.717v.157l-1.35 9.039h6.523c.22 0 .435.056.623.164.187.108.34.263.442.448a1.164 1.164 0 0 1 0 1.224l-3 4.968-6.147 9.28c-.113.16-.268.29-.45.378a1.238 1.238 0 0 1-.585.12Zm-4.739-12.54h5.999c.165.001.328.034.48.096.153.061.29.151.406.263.115.113.207.246.268.391.061.146.092.302.09.46v.156l-.885 5.893 3.75-5.694 2.159-3.53H9.172a1.316 1.316 0 0 1-.48-.097 1.265 1.265 0 0 1-.406-.263 1.192 1.192 0 0 1-.268-.391 1.143 1.143 0 0 1-.09-.46v-.156l.885-5.893-3.75 5.694-2.159 3.53Z" fill="#9B9591"/></svg><view id="icon--ico-phone" viewBox="0 198 45 45"/><svg width="45" height="45" fill="none" viewBox="-10 -10 45 45" y="198" xmlns="http://www.w3.org/2000/svg"><path d="M9.995 14.041a14.355 14.355 0 0 0 5.225 3.454l2.661-2.163a.466.466 0 0 1 .537 0l4.942 3.252c.188.115.347.273.464.462a1.462 1.462 0 0 1-.23 1.83l-2.317 2.336c-.331.335-.739.58-1.186.715-.447.135-.92.154-1.377.057a24.61 24.61 0 0 1-12.108-6.49A24.51 24.51 0 0 1 .06 5.362 2.78 2.78 0 0 1 .12 3.977c.136-.449.383-.854.717-1.176l2.4-2.365A1.385 1.385 0 0 1 4.992.214c.182.115.335.27.45.453l3.29 4.982a.46.46 0 0 1 0 .54L6.563 8.85a14.258 14.258 0 0 0 3.432 5.191Z" fill="#4859F0"/></svg><view id="icon--ico-phone-footer" viewBox="77 154 38 38"/><svg width="38" height="38" fill="none" viewBox="-10 -10 38 38" x="77" y="154" xmlns="http://www.w3.org/2000/svg"><path d="M7.482 10.511a10.745 10.745 0 0 0 3.911 2.586l1.993-1.62a.35.35 0 0 1 .402 0l3.7 2.435c.14.086.259.204.347.346a1.096 1.096 0 0 1-.173 1.37l-1.734 1.749c-.248.25-.553.434-.888.535-.335.1-.689.115-1.03.042a18.423 18.423 0 0 1-9.065-4.857 18.349 18.349 0 0 1-4.9-9.084c-.073-.343-.057-.7.045-1.036.101-.336.286-.639.537-.88L2.424.327a1.055 1.055 0 0 1 .865-.321 1.043 1.043 0 0 1 .784.493l2.463 3.73a.345.345 0 0 1 0 .405L4.913 6.625a10.674 10.674 0 0 0 2.57 3.886Z" fill="#4859F0"/></svg><view id="icon--ico-search" viewBox="203 0 50 50"/><svg width="50" height="50" fill="none" viewBox="-10 -10 50 50" x="203" xmlns="http://www.w3.org/2000/svg"><path d="M20.677 20.736a1 1 0 0 1 1.413-.059l7.254 6.673a1 1 0 1 1-1.355 1.472l-7.253-6.673a1 1 0 0 1-.059-1.413Z" fill="#9B9591"/><path fill-rule="evenodd" clip-rule="evenodd" d="M12.5 23C18.299 23 23 18.299 23 12.5S18.299 2 12.5 2 2 6.701 2 12.5 6.701 23 12.5 23Zm0 2C19.404 25 25 19.404 25 12.5S19.404 0 12.5 0 0 5.596 0 12.5 5.596 25 12.5 25Z" fill="#9B9591"/></svg><view id="icon--ico-support" viewBox="0 0 106 102"/><svg width="106" height="102" fill="none" viewBox="-10 -10 106 102" xmlns="http://www.w3.org/2000/svg"><path d="M70.855 35.158a3.25 3.25 0 1 0 6.5 0h-6.5ZM42.947 4V.75 4ZM8.54 35.158a3.25 3.25 0 0 0 6.5 0h-6.5ZM4 45.136H.75 4Zm5.9-7.556.789 3.153h.002L9.9 37.58Zm6.777-1.698-.785-3.153h-.005l.79 3.153Zm2.902 2.267h3.25v-.001l-3.25.001Zm0 21.277h-3.25v.006l3.25-.006Zm-2.905 2.27.79-3.152h-.002l-.788 3.153Zm-6.777-1.694-.79 3.153h.001l.789-3.153ZM4 52.447H.75 4Zm77.895-7.31h3.25v-.001h-3.25Zm-5.9-7.557-.79 3.153h.001l.788-3.153Zm-6.778-1.698.79-3.152-.004-.001-.786 3.153Zm-2.901 2.267-3.25-.001v.001h3.25Zm0 21.277 3.25.004v-.004h-3.25Zm2.901 2.27.786 3.154h.003l-.789-3.153Zm6.777-1.694-.788-3.153.788 3.153Zm5.9-7.555h3.25-3.25Zm-50.63 19.71h-3.25 3.25Zm23.368 0h3.25-3.25Zm22.723-37a34.408 34.408 0 0 0-10.078-24.33l-4.596 4.597a27.908 27.908 0 0 1 8.174 19.734h6.5Zm-10.078-24.33A34.408 34.408 0 0 0 42.947.75v6.5c7.402 0 14.5 2.94 19.734 8.174l4.596-4.596ZM42.947.75a34.408 34.408 0 0 0-24.33 10.078l4.596 4.596A27.908 27.908 0 0 1 42.948 7.25V.75Zm-24.33 10.078A34.408 34.408 0 0 0 8.54 35.158h6.5c0-7.402 2.94-14.5 8.175-19.734l-4.597-4.596ZM7.25 45.137a4.54 4.54 0 0 1 .962-2.794l-5.123-4A11.04 11.04 0 0 0 .75 45.136h6.5Zm.962-2.794a4.54 4.54 0 0 1 2.477-1.61l-1.577-6.306a11.04 11.04 0 0 0-6.023 3.916l5.123 4Zm2.479-1.61 6.776-1.698-1.58-6.305-6.776 1.698 1.58 6.305Zm6.772-1.697a.914.914 0 0 1-.41.007l1.351-6.358a5.589 5.589 0 0 0-2.512.044l1.57 6.307Zm-.41.007a.915.915 0 0 1-.373-.173l4.002-5.123a5.588 5.588 0 0 0-2.278-1.062l-1.352 6.358Zm-.373-.173a.915.915 0 0 1-.259-.32l5.842-2.85a5.586 5.586 0 0 0-1.582-1.953L16.68 38.87Zm-.259-.32a.914.914 0 0 1-.092-.4l6.5-.002c0-.849-.194-1.686-.566-2.448l-5.842 2.85Zm-.092-.401v21.277h6.5V38.149h-6.5Zm0 21.283c0-.14.031-.277.092-.401l5.845 2.843a5.586 5.586 0 0 0 .563-2.454l-6.5.012Zm.092-.401a.913.913 0 0 1 .259-.32l4.002 5.121a5.588 5.588 0 0 0 1.584-1.958l-5.845-2.843Zm.259-.32a.913.913 0 0 1 .373-.174l1.347 6.358a5.587 5.587 0 0 0 2.282-1.063l-4.002-5.121Zm.373-.174a.914.914 0 0 1 .411.007l-1.581 6.305a5.586 5.586 0 0 0 2.517.046l-1.347-6.358Zm.409.007-6.777-1.695-1.577 6.306 6.777 1.695 1.577-6.306Zm-6.776-1.694a4.54 4.54 0 0 1-2.475-1.61l-5.124 3.998a11.04 11.04 0 0 0 6.02 3.917l1.58-6.305Zm-2.475-1.61a4.54 4.54 0 0 1-.961-2.794H.75c0 2.462.822 4.852 2.337 6.792L8.21 55.24Zm76.934-10.104a11.04 11.04 0 0 0-2.339-6.793l-5.123 4c.623.798.962 1.781.962 2.794l6.5-.001Zm-2.339-6.793a11.04 11.04 0 0 0-6.024-3.916l-1.576 6.306a4.54 4.54 0 0 1 2.477 1.61l5.123-4Zm-6.022-3.915-6.777-1.698-1.58 6.305 6.777 1.698 1.58-6.305Zm-6.781-1.7a5.589 5.589 0 0 0-2.513-.043l1.353 6.358a.914.914 0 0 1-.411-.007l1.57-6.307Zm-2.513-.043c-.83.177-1.608.54-2.277 1.062l4.002 5.123a.914.914 0 0 1-.372.173l-1.353-6.358Zm-2.277 1.062a5.588 5.588 0 0 0-1.581 1.953l5.841 2.85a.913.913 0 0 1-.258.32l-4.002-5.123ZM63.632 35.7a5.587 5.587 0 0 0-.566 2.448l6.5.002a.914.914 0 0 1-.093.4l-5.841-2.85Zm-.566 2.449v21.277h6.5V38.149h-6.5Zm0 21.273c-.001.849.191 1.687.563 2.45l5.845-2.842c.06.124.092.261.092.4l-6.5-.008Zm.563 2.45a5.586 5.586 0 0 0 1.58 1.957l4.006-5.12c.11.086.198.196.259.32l-5.845 2.844Zm1.58 1.957a5.586 5.586 0 0 0 2.28 1.064l1.354-6.357a.915.915 0 0 1 .372.174l-4.005 5.119Zm2.28 1.064c.83.177 1.69.162 2.514-.043l-1.571-6.307a.914.914 0 0 1 .41-.007l-1.354 6.357Zm2.517-.043 6.776-1.695-1.576-6.306-6.777 1.695 1.577 6.306Zm6.776-1.695a11.04 11.04 0 0 0 6.024-3.915l-5.123-4a4.54 4.54 0 0 1-2.477 1.61l1.576 6.305Zm6.024-3.915a11.039 11.039 0 0 0 2.339-6.793h-6.5a4.539 4.539 0 0 1-.962 2.792l5.123 4.001Zm-11.95 3.181v1.947h6.5v-1.947h-6.5Zm0 1.947a4.54 4.54 0 0 1-1.33 3.21l4.596 4.596a11.04 11.04 0 0 0 3.233-7.806h-6.5Zm-1.33 3.21a4.54 4.54 0 0 1-3.21 1.33v6.5a11.04 11.04 0 0 0 7.806-3.234l-4.596-4.596Zm-3.21 1.33H52.684v6.5h13.632v-6.5ZM48.789 74.75H37.105v6.5H48.79v-6.5Zm-11.684 0a2.592 2.592 0 0 1-1.833-.76l-4.596 4.597a9.092 9.092 0 0 0 6.43 2.663v-6.5Zm-1.833-.76a2.592 2.592 0 0 1-.759-1.832h-6.5c0 2.411.958 4.724 2.663 6.429l4.596-4.596Zm-.759-1.832c0-.688.273-1.347.76-1.833l-4.597-4.596a9.092 9.092 0 0 0-2.663 6.429h6.5Zm.76-1.833a2.592 2.592 0 0 1 1.832-.76v-6.5a9.092 9.092 0 0 0-6.429 2.664l4.596 4.596Zm1.832-.76H48.79v-6.5H37.105v6.5Zm11.684 0c.688 0 1.347.274 1.833.76l4.597-4.596a9.092 9.092 0 0 0-6.43-2.663v6.5Zm1.833.76c.486.486.76 1.145.76 1.833h6.5a9.092 9.092 0 0 0-2.663-6.43l-4.597 4.597Zm.76 1.833c0 .687-.273 1.347-.76 1.833l4.597 4.596a9.092 9.092 0 0 0 2.663-6.43h-6.5Zm-.76 1.833a2.592 2.592 0 0 1-1.833.759v6.5a9.092 9.092 0 0 0 6.43-2.663l-4.597-4.596ZM7.25 52.447v-7.31H.75v7.31h6.5Zm77.895 0v-7.31h-6.5v7.31h6.5Z" fill="#4859F0"/></svg></svg>